<svg width="84" height="40" viewBox="0 0 84 40" fill="none" xmlns="http://www.w3.org/2000/svg">
<path d="M1.85006 0.1281C1.85006 0.199256 1.70775 0.313106 1.53698 0.3558C1.06734 0.498113 0.583482 0.981976 0.270394 1.62238C0.0142313 2.16317 0 2.61857 0 10.7019C0 15.5832 0.056925 19.2122 0.128081 19.2122C0.199238 19.2122 0.298856 19.3545 0.34155 19.5253C0.6831 20.7634 2.61855 21.3327 3.84244 20.5642C4.68208 20.0376 4.83863 19.6249 4.83863 17.8318C4.83863 16.9921 4.89555 16.2237 4.95248 16.1383C5.0094 16.0386 6.01982 15.9533 7.75604 15.8963C11.2854 15.7825 12.3243 15.5263 14.274 14.2597C16.0102 13.1355 17.1487 11.4704 17.6325 9.36419C18.1022 7.31489 17.3906 4.85288 15.8252 3.10243C15.1421 2.34818 13.5339 1.13852 13.2066 1.13852C13.107 1.13852 12.8935 1.05313 12.737 0.953513C12.3812 0.725813 11.6269 0.46965 10.9154 0.341569C10.6308 0.298875 10.3461 0.199256 10.3034 0.1281C10.2038 -0.0426751 1.85006 -0.0426751 1.85006 0.1281ZM10.83 4.81018C14.1032 6.34716 13.6478 10.5027 10.1042 11.4846C9.32148 11.6981 5.18018 11.7408 5.0521 11.5273C5.0094 11.442 4.96671 9.83382 4.98094 7.94106C4.98094 5.39367 5.03787 4.46863 5.16595 4.36902C5.26557 4.31209 6.36137 4.28363 7.61372 4.31209C9.81957 4.36902 9.91919 4.38325 10.83 4.81018Z" fill="white"/>
<path d="M46.2373 0.35575C45.8815 0.540756 45.4119 0.896538 45.2127 1.13847C44.8426 1.56541 44.8284 1.65079 44.8284 3.27316C44.8284 4.44012 44.7715 4.99514 44.6576 5.09476C44.558 5.16592 43.9888 5.30823 43.4053 5.40785C42.8218 5.50747 41.9537 5.73517 41.4698 5.92017C41.0002 6.10518 40.559 6.26172 40.5021 6.26172C40.4594 6.26172 40.004 6.51789 39.4917 6.8452C38.2536 7.62792 37.1151 8.89451 36.4747 10.218L35.9339 11.3138L35.8912 15.2559C35.8627 17.4333 35.877 19.2122 35.9339 19.2122C35.9766 19.2122 36.19 19.0841 36.4035 18.9275C37.0724 18.4437 37.9974 18.2871 38.894 18.4864C39.3351 18.586 39.7621 18.7568 39.8475 18.8706C39.9471 18.9702 40.1179 19.0699 40.2175 19.0699C40.3883 19.0699 40.4167 18.4864 40.4167 15.8536C40.4167 13.7758 40.4736 12.4239 40.5875 12.0681C40.801 11.3423 41.7829 10.2465 42.5941 9.83377C42.9926 9.6203 43.5191 9.49222 43.9888 9.47799L44.7573 9.46376L44.8426 11.8831C44.9565 14.7862 44.985 14.957 45.7961 16.6505C46.2231 17.5329 48.0589 19.2264 49.2401 19.8099C50.2363 20.308 50.649 20.4361 52.371 20.7776C53.3814 20.9768 55.018 20.9342 56.128 20.6922C57.11 20.4788 58.832 19.753 58.9885 19.4826C59.1593 19.2122 59.7712 19.3687 60.7105 19.9237C61.2513 20.2368 61.7921 20.493 61.9059 20.493C62.0198 20.493 62.404 20.5926 62.7598 20.7207C63.201 20.8772 63.9552 20.9484 65.1791 20.9626C66.9723 20.9768 67.4561 20.8915 69.0358 20.2511C69.5339 20.0518 69.5623 20.0518 70.1885 20.493C71.3697 21.3326 72.9067 21.0765 73.6894 19.9095C74.0167 19.4256 74.031 19.4114 73.9598 15.5832C73.9313 12.8508 73.8602 11.5984 73.7179 11.2427C72.5224 8.08332 70.1601 6.10518 66.8869 5.5217C65.8622 5.33669 63.2864 5.479 62.4752 5.7494C61.0378 6.26172 60.3263 6.63174 59.387 7.38599C58.1773 8.35372 57.3946 9.46376 56.7115 11.1715C56.4269 11.8831 56.3842 14.1885 56.6404 15.0424C56.7827 15.5263 56.7827 15.6828 56.6404 15.8536C56.0996 16.5082 54.2637 16.9067 52.9829 16.6505C51.8729 16.4086 51.2609 16.0813 50.5636 15.327C49.724 14.4305 49.5247 13.6193 49.5247 11.2996C49.5247 9.56338 49.5532 9.3926 49.7951 9.25029C49.9659 9.1649 51.4317 9.10798 53.5522 9.10798H57.0246L57.6223 8.46757C58.1346 7.91255 58.2058 7.75601 58.2058 7.17252C58.2058 6.74559 58.0919 6.33288 57.9069 6.01979C57.3662 5.16592 57.1811 5.12322 53.3245 5.12322C50.7059 5.12322 49.8094 5.08053 49.6955 4.93822C49.6243 4.85283 49.5247 4.01318 49.4963 3.08815L49.4536 1.40886L48.9412 0.925C48.6566 0.654606 48.2581 0.398444 48.0447 0.341519C47.8454 0.298825 47.632 0.199206 47.5893 0.12805C47.4612 -0.0854192 46.9346 0.0141996 46.2373 0.35575ZM66.6876 9.76261C69.4343 10.9153 70.1601 13.5908 68.31 15.7113C67.7265 16.3801 66.2892 16.9352 65.1791 16.9352C62.9875 16.9352 61.0521 15.1847 61.0521 13.2066C61.0663 11.8688 61.8063 10.773 63.2864 9.93339C63.8556 9.6203 64.1545 9.54914 65.051 9.54914C65.7484 9.53491 66.3318 9.6203 66.6876 9.76261Z" fill="white"/>
<path d="M75.7815 0.668837C75.2834 0.939231 74.8423 1.46579 74.643 2.02081C74.5576 2.27697 74.5292 4.99514 74.5719 9.63453L74.643 16.864L75.1269 17.7606C76.0234 19.3972 77.6885 20.6068 79.5528 20.9484C79.9797 21.0195 80.5063 21.1192 80.7055 21.1619C81.2036 21.2615 82.5841 20.5926 82.8971 20.1087C83.2956 19.511 83.3383 18.7283 82.9968 18.1875C82.5983 17.5613 82.0575 17.2625 80.9617 17.0917C80.179 16.9636 79.994 16.8782 79.5955 16.4228L79.1259 15.8963V8.99412C79.1259 1.26655 79.1543 1.49425 78.1012 0.81115C77.4039 0.355749 76.4646 0.298824 75.7815 0.668837Z" fill="white"/>
<path d="M24.264 5.4648C20.7204 6.40406 18.6996 8.18297 17.7176 11.2142C17.3903 12.1819 17.4899 14.6867 17.8742 15.6544C18.6 17.476 19.9235 18.8991 21.7451 19.8668C22.3001 20.1515 23.0259 20.4361 23.3674 20.5072C26.5125 21.1619 28.1491 21.0053 30.4546 19.8811C32.9308 18.6572 34.4963 16.6221 34.8805 14.1174C35.279 11.5415 34.169 8.96568 31.9062 7.18678C31.0096 6.47521 30.2554 6.09097 28.9603 5.66403C27.8787 5.29402 25.3029 5.1944 24.264 5.4648ZM28.2914 9.90495C29.5153 10.5738 30.4546 12.0112 30.4546 13.2066C30.4546 14.5586 29.003 16.2521 27.4945 16.679C26.3418 17.0206 25.7156 16.9921 24.7479 16.6079C23.1824 15.9532 22.4709 15.199 22.1151 13.8185C21.9158 13.0074 21.9158 12.8793 22.1293 12.2389C22.4709 11.2285 23.1824 10.3746 24.0648 9.93341C25.1606 9.39262 25.1463 9.39262 26.3987 9.44955C27.3237 9.49224 27.6795 9.5634 28.2914 9.90495Z" fill="white"/>
<path d="M37.3144 19.4542C36.8163 19.5538 36.0051 20.4361 35.9909 20.8915C35.9766 21.105 35.9766 22.0158 35.9766 22.9124C35.9909 23.8089 35.9482 24.6628 35.9055 24.8051C35.8201 25.1182 35.7205 25.104 33.9416 24.6201C33.045 24.3924 32.5185 24.3355 31.4511 24.3782C29.3876 24.4636 28.7187 24.6486 26.8544 25.659C26.1998 26.0005 25.1324 26.9113 24.6059 27.566C21.8165 31.0242 22.5993 35.5782 26.4417 38.2394C26.9113 38.581 27.381 38.8514 27.4664 38.8514C27.5375 38.8514 27.936 39.0079 28.3487 39.2071C28.7472 39.4064 29.2168 39.5629 29.3733 39.5629C29.5441 39.5629 29.8572 39.6625 30.0849 39.7764C30.3411 39.9187 30.8961 39.9899 31.6646 39.9899C32.4331 39.9899 32.9881 39.9187 33.2442 39.7764C33.4719 39.6625 33.7566 39.5629 33.8847 39.5629C34.3401 39.5629 36.2186 38.6806 37.0867 38.0686C38.5098 37.0582 39.3352 35.9909 39.9899 34.2974C40.2887 33.5431 40.303 33.3296 40.303 27.0679C40.303 20.0661 40.3172 20.2369 39.506 19.6961C39.1502 19.4684 37.8836 19.3261 37.3144 19.4542ZM32.8458 28.491C34.6104 28.9179 35.8628 30.4407 35.8628 32.1342C35.8628 33.7139 34.5251 35.2082 32.5896 35.8059C31.7784 36.062 31.5223 36.0478 30.6399 35.7916C28.676 35.2082 27.4094 33.7423 27.4237 32.0915C27.4379 30.8534 27.8079 30.1418 29.0033 29.1172C29.7718 28.4483 31.5365 28.1637 32.8458 28.491Z" fill="#FF31B9"/>
<path d="M70.1317 23.0974C69.9325 23.197 69.6194 23.3962 69.4628 23.5385C69.3063 23.6808 68.367 25.4455 67.3851 27.4521C65.3785 31.5507 65.2504 31.7784 65.0654 31.8496C64.9942 31.8638 64.183 30.3838 63.2722 28.5479C61.5218 25.0186 61.2372 24.6201 60.1983 24.3355C59.2733 24.0793 58.2344 24.492 57.6651 25.3459C57.224 25.9863 57.2951 26.5271 58.0351 28.0641C58.3482 28.7187 58.7467 29.5584 58.9175 29.9568C59.0882 30.3411 59.444 31.1096 59.7002 31.6646C59.9564 32.2054 60.3975 33.1589 60.6821 33.7566C60.9525 34.3543 61.4364 35.3789 61.7353 36.0336C62.0483 36.6882 62.4895 37.6275 62.7314 38.1398C63.1726 39.1218 63.4857 39.4633 64.0123 39.6199C64.183 39.6768 64.3254 39.7906 64.3254 39.8618C64.3254 39.9329 64.6527 39.9899 65.0369 39.9899C65.4354 39.9899 65.7485 39.9187 65.7485 39.8476C65.7485 39.7622 65.8339 39.7052 65.9335 39.7052C66.2608 39.7052 67.1574 38.7091 67.5132 37.9548C67.997 36.9017 68.6517 35.4786 69.0217 34.6531C69.3632 33.8847 69.9752 32.5612 70.7721 30.8819C71.3698 29.5868 71.9391 28.3629 72.3802 27.3667L72.7076 26.6267L77.3896 26.584C82.6268 26.5413 82.4987 26.5556 83.1818 25.474C83.6229 24.7767 83.6229 24.677 83.1391 23.9797C82.3991 22.9124 82.4702 22.9266 76.1373 22.9266C72.1241 22.9408 70.4021 22.9835 70.1317 23.0974Z" fill="#FF31B9"/>
<path d="M47.3473 24.6201C44.7715 25.3032 42.5799 27.0821 41.4698 29.3876C41.0998 30.1845 41.0714 30.3553 41.0571 32.0915V33.9416L41.5837 35.0089C41.8825 35.5924 42.4233 36.432 42.7933 36.8732C43.448 37.6417 45.0134 38.8513 45.355 38.8513C45.4404 38.8513 45.7961 39.0079 46.1235 39.2071C46.465 39.4064 46.8777 39.5629 47.0343 39.5629C47.1908 39.5629 47.5039 39.6625 47.7316 39.7764C48.187 40.0183 50.8767 40.0895 51.019 39.8618C51.0617 39.7764 51.4033 39.6768 51.7733 39.6198C52.7125 39.4775 54.1499 38.7802 54.4914 38.2963C54.9611 37.6559 55.0038 37.1294 54.6622 36.4605C54.0787 35.322 52.6983 35.0089 51.0902 35.6493C49.6386 36.2328 48.0304 35.8912 46.8066 34.7243C45.725 33.6996 45.5827 33.7281 51.6452 33.7281C57.0104 33.7281 57.0246 33.7281 57.5085 33.4008C58.2627 32.8884 58.4193 32.4473 58.2485 31.1665C57.9354 28.7614 56.185 26.5555 53.5664 25.2605C52.2714 24.6201 51.5171 24.4635 49.7382 24.4066C48.6993 24.3782 48.0589 24.4351 47.3473 24.6201ZM50.834 28.5052C51.9298 28.7898 53.1395 29.8714 52.8691 30.3126C52.8121 30.398 51.574 30.4549 49.5817 30.4549C46.7212 30.4549 46.3796 30.4264 46.2942 30.213C46.1662 29.8856 47.4612 28.7187 48.187 28.5052C48.9555 28.2917 50.0371 28.2917 50.834 28.5052Z" fill="#FF31B9"/>
<path d="M19.7102 35.934C18.8563 36.304 18.2871 37.3855 18.5148 38.1825C18.6571 38.7091 19.3117 39.5629 19.5536 39.5629C19.6675 39.5629 19.824 39.6625 19.9237 39.7764C20.1229 40.0183 21.4891 40.0753 21.4891 39.8476C21.4891 39.7764 21.6456 39.6768 21.8449 39.6199C22.0441 39.5772 22.3857 39.3068 22.6276 39.0506C23.4815 38.0686 23.0688 36.4605 21.8164 35.934C21.2045 35.6778 20.2937 35.6778 19.7102 35.934Z" fill="#FF31B9"/>
</svg>
