<svg width="56" height="56" viewBox="0 0 56 56" fill="none" xmlns="http://www.w3.org/2000/svg">
<rect width="56" height="56" rx="8" fill="#3E032F"/>
<path d="M16.0192 19.8623L20.6654 26.7923L25.2854 19.8623H29.1967L22.5554 29.3123L28.9867 38.4998H25.0754L20.6654 31.8323L16.2293 38.4998H12.2918L18.723 29.3123L12.0817 19.8623H16.0192Z" fill="#FD5BF0"/>
<path d="M35.6279 38.7627C31.5896 38.7627 29.0916 35.3967 29.0916 31.6227C29.0916 27.3439 31.9724 24.5089 35.2341 24.5089C37.9971 24.5089 39.425 26.3727 39.8802 27.1602V19.3376H43.3977V34.4577C43.3977 34.8252 43.9137 35.4904 44.2114 35.5077V38.5002C43.5986 38.6225 43.0999 38.6839 42.7151 38.6839C40.1753 38.6839 40.4052 36.1114 40.4052 36.1114C39.8976 36.9868 38.3845 38.7627 35.6279 38.7627ZM36.5467 35.7702C38.7537 35.7702 39.7577 33.7928 39.8803 33.4602V30.1789C39.7401 29.7941 38.4802 27.5014 36.3367 27.5014C33.9412 27.5014 32.7404 29.8778 32.7404 31.7014C32.7404 33.7059 34.2146 35.7702 36.5467 35.7702Z" fill="#FD5BF0"/>
<path d="M28 19.8623V21.5652L29.1967 19.8623H28Z" fill="#FD5BF0"/>
<path d="M28 38.5H28.9867L28 37.0903V38.5Z" fill="#FD5BF0"/>
</svg>
