<svg width="56" height="56" viewBox="0 0 56 56" fill="none" xmlns="http://www.w3.org/2000/svg">
<rect width="56" height="56" rx="8" fill="black"/>
<path d="M22.168 48.2142C25.8166 48.2142 28.7778 45.253 28.7778 41.6044V34.9946H22.168C18.5194 34.9946 15.5582 37.9558 15.5582 41.6044C15.5582 45.253 18.5194 48.2142 22.168 48.2142Z" fill="#1AD285"/>
<path d="M15.5582 28.3849C15.5582 24.7363 18.5194 21.7751 22.168 21.7751H28.7778V34.9947H22.168C18.5194 34.9947 15.5582 32.0335 15.5582 28.3849Z" fill="#7F43FF"/>
<path d="M15.5582 15.1655C15.5582 11.5168 18.5194 8.55566 22.168 8.55566H28.7778V21.7752H22.168C18.5194 21.7752 15.5582 18.8141 15.5582 15.1655Z" fill="#C00045"/>
<path d="M28.7778 8.55566H35.3876C39.0362 8.55566 41.9974 11.5168 41.9974 15.1655C41.9974 18.8141 39.0362 21.7752 35.3876 21.7752H28.7778V8.55566Z" fill="#FF5252"/>
<path d="M41.9974 28.3849C41.9974 32.0335 39.0362 34.9947 35.3876 34.9947C31.739 34.9947 28.7778 32.0335 28.7778 28.3849C28.7778 24.7363 31.739 21.7751 35.3876 21.7751C39.0362 21.7751 41.9974 24.7363 41.9974 28.3849Z" fill="#00BBF5"/>
</svg>
