<svg width="56" height="56" viewBox="0 0 56 56" fill="none" xmlns="http://www.w3.org/2000/svg">
<rect width="56" height="56" rx="8" fill="black"/>
<path fill-rule="evenodd" clip-rule="evenodd" d="M27.9236 3.11108C20.9823 3.11108 14.7069 6.02077 10.1938 10.716C5.76616 15.3224 3.03467 21.6474 3.03467 28.6295C3.03467 39.9214 10.1591 49.4589 20.0524 52.8401C21.2969 53.0634 21.7636 52.2978 21.7636 51.628C21.7636 51.0219 21.7324 49.0124 21.7324 46.8752C15.4791 48.0554 13.8613 45.3122 13.3636 43.8768C13.0836 43.1431 11.8702 40.8784 10.8124 40.2723C9.94133 39.7938 8.69689 38.6136 10.7813 38.5817C12.7413 38.5498 14.1413 40.4318 14.608 41.1973C16.848 45.057 20.4258 43.9725 21.8569 43.3026C22.0747 41.6439 22.728 40.5275 23.4436 39.8895C17.9058 39.2516 12.1191 37.0506 12.1191 27.2898C12.1191 24.5147 13.0836 22.218 14.6702 20.4317C14.4213 19.7938 13.5502 17.1781 14.9191 13.6693C14.9191 13.6693 17.0036 12.9995 21.7636 16.285C23.7547 15.7108 25.8702 15.4237 27.9858 15.4237C30.1013 15.4237 32.2169 15.7108 34.208 16.285C38.968 12.9676 41.0524 13.6693 41.0524 13.6693C42.4213 17.1781 41.5502 19.7938 41.3013 20.4317C42.888 22.218 43.8524 24.4828 43.8524 27.2898C43.8524 37.0825 38.0347 39.2516 32.4969 39.8895C33.3991 40.687 34.1769 42.2181 34.1769 44.6104C34.1769 48.0235 34.1458 50.7667 34.1458 51.628C34.1458 52.2978 34.6124 53.0953 35.8569 52.8401C40.7978 51.1299 45.0912 47.8742 48.1328 43.5311C51.1744 39.188 52.8111 33.9763 52.8124 28.6295C52.8124 14.5306 41.6747 3.11108 27.9236 3.11108Z" fill="white"/>
</svg>
