<svg width="54" height="56" viewBox="0 0 54 56" fill="none" xmlns="http://www.w3.org/2000/svg">
<path d="M34.101 0.127754L3.34378 2.41442C0.864252 2.62908 0 4.26475 0 6.22241V40.191C0 41.717 0.538424 43.0213 1.83249 44.7643L9.06309 54.2376C10.2509 55.7636 11.3323 56.0903 13.5969 55.9806L49.3178 53.8013C52.3381 53.5866 53.2 52.168 53.2 49.774V11.5587C53.2 10.2521 52.6593 9.9254 51.0417 8.7284L41.223 1.76108C38.8497 0.0180878 37.8769 -0.198912 34.101 0.127754Z" fill="white"/>
<path d="M9.17401 9.81807C10.8979 11.2321 11.5449 11.1247 14.7847 10.9054L45.3224 9.05507C45.9694 9.05507 45.431 8.40174 45.2161 8.2944L40.1415 4.59141C39.1709 3.83075 37.8746 2.95808 35.3927 3.17508L5.82561 5.35441C4.74876 5.46174 4.53154 6.00774 4.96136 6.44174L9.17401 9.81807ZM11.0065 17.0047V49.4473C11.0065 51.1903 11.8684 51.8436 13.8119 51.734L47.3721 49.774C49.3155 49.6666 49.5327 48.4673 49.5327 47.051V14.8254C49.5327 13.4114 48.9943 12.6484 47.8042 12.7557L12.7327 14.8254C11.4386 14.9351 11.0065 15.5884 11.0065 17.0024V17.0047ZM44.1369 18.743C44.3518 19.723 44.1369 20.703 43.1664 20.815L41.5488 21.1417V45.091C40.1438 45.854 38.8497 46.2903 37.7706 46.2903C36.0421 46.2903 35.6099 45.7443 34.3159 44.1133L23.7392 27.346V43.5673L27.0853 44.3327C27.0853 44.3327 27.0853 46.2927 24.3862 46.2927L16.9407 46.7267C16.7258 46.2927 16.9407 45.203 17.6964 44.986L19.6375 44.4423V22.992L16.9453 22.7727C16.7281 21.7927 17.2689 20.3787 18.7778 20.269L26.7641 19.7254L37.7729 36.7097V21.683L34.9652 21.3587C34.7503 20.1594 35.6123 19.289 36.6914 19.1817L44.1369 18.743ZM3.34378 2.41442L34.101 0.127754C37.8769 -0.198912 38.8497 0.0180878 41.223 1.76108L51.0417 8.7284C52.6593 9.9254 53.2 10.2521 53.2 11.5587V49.774C53.2 52.168 52.3381 53.5866 49.3178 53.8013L13.5969 55.9806C11.3323 56.0903 10.2509 55.7636 9.06309 54.2376L1.83249 44.7643C0.538424 43.0213 0 41.717 0 40.191V6.22241C0 4.26475 0.864252 2.62908 3.34378 2.41442V2.41442Z" fill="#191919"/>
</svg>
